<svg width="85" height="85" viewBox="0 0 85 85" fill="none" xmlns="http://www.w3.org/2000/svg">
<g clip-path="url(#clip0_223_307)">
<path d="M42.5 85C65.9721 85 85 65.9721 85 42.5C85 19.0279 65.9721 0 42.5 0C19.0279 0 0 19.0279 0 42.5C0 65.9721 19.0279 85 42.5 85Z" fill="#FCF5E0"/>
<path d="M53.8602 37.307C51.1757 25.4593 44.8314 21.5638 44.1483 20.0754C43.4012 19.0254 42.6442 17.1577 42.6442 17.1577C42.6317 17.1262 42.6118 17.0706 42.5886 17.0166C42.5114 18.0667 42.4715 18.4717 41.4788 19.5309C39.9414 20.7329 32.054 27.3511 31.4124 40.8116C30.8139 53.3657 40.481 60.8464 41.7884 61.8001L41.937 61.9056V61.8964C41.9453 61.9595 42.352 64.8847 42.6375 67.9842H43.6619C43.9022 65.7933 44.2624 63.6171 44.741 61.4656L44.824 61.4117C45.4088 60.9923 45.9663 60.5363 46.4933 60.0462L46.553 59.9922C49.3321 57.4248 54.3284 51.4864 54.2794 42.0186C54.269 40.4392 54.1288 38.8634 53.8602 37.307ZM42.5288 54.7121C42.5288 54.7121 42.5288 37.1045 43.1099 37.1078C43.5631 37.1078 44.1499 59.8196 44.1499 59.8196C43.3431 59.7225 42.5288 56.0817 42.5288 54.7121Z" fill="#110F21"/>
</g>
<defs>
<clipPath id="clip0_223_307">
<rect width="85" height="85" fill="white"/>
</clipPath>
</defs>
</svg>
