<svg width="108" height="108" viewBox="0 0 108 108" fill="none" xmlns="http://www.w3.org/2000/svg">
<g clip-path="url(#clip0_222_301)">
<path d="M50.4668 0.0843646C50.2347 0.105456 49.4965 0.179277 48.8322 0.232006C33.509 1.61351 19.1561 9.88146 10.0656 22.5892C5.00362 29.6549 1.76604 37.6698 0.542726 46.1592C0.110346 49.1225 0.0576172 49.9978 0.0576172 54.0158C0.0576172 58.0338 0.110346 58.9091 0.542726 61.8725C3.47447 82.131 17.8906 99.152 37.4426 105.458C40.9439 106.587 44.6349 107.357 48.8322 107.821C50.4668 108 57.5325 108 59.1671 107.821C66.4121 107.019 72.5498 105.226 78.6031 102.137C79.5311 101.662 79.7104 101.535 79.5838 101.43C79.4995 101.367 75.5448 96.0621 70.7991 89.6502L62.1726 77.9971L51.3632 61.999C45.4153 53.2038 40.522 46.0115 40.4798 46.0115C40.4377 46.001 40.3955 53.1089 40.3744 61.7881C40.3427 76.9847 40.3322 77.5963 40.1424 77.9549C39.8682 78.4716 39.6573 78.6825 39.2143 78.9146C38.8769 79.0833 38.5816 79.1149 36.9892 79.1149H35.1647L34.6796 78.8091C34.3633 78.6087 34.1312 78.3451 33.9731 78.0393L33.7516 77.5647L33.7727 56.4203L33.8043 35.2653L34.1312 34.854C34.3 34.6326 34.6585 34.3478 34.9116 34.2107C35.344 33.9998 35.5127 33.9787 37.3372 33.9787C39.4885 33.9787 39.8471 34.0631 40.406 34.6747C40.5642 34.8435 46.4172 43.6598 53.4196 54.2795C60.422 64.8991 69.9977 79.3997 74.7011 86.5181L83.2432 99.4579L83.6756 99.1731C87.5038 96.6843 91.5534 93.1409 94.7593 89.4499C101.582 81.6143 105.98 72.0598 107.457 61.8725C107.889 58.9091 107.942 58.0338 107.942 54.0158C107.942 49.9978 107.889 49.1225 107.457 46.1592C104.525 25.9006 90.1086 8.8796 70.5566 2.57318C67.1081 1.45532 63.4381 0.685478 59.3253 0.221461C58.3129 0.116002 51.3421 -2.15663e-06 50.4668 0.0843646ZM72.5498 32.7132C73.056 32.9663 73.4672 33.4514 73.6149 33.9576C73.6993 34.2318 73.7203 40.0953 73.6993 53.3092L73.6676 72.2707L70.3246 67.1454L66.971 62.0201V48.2367C66.971 39.3255 67.0132 34.3162 67.0765 34.0736C67.2452 33.4831 67.6143 33.019 68.1205 32.7448C68.5529 32.5234 68.7111 32.5023 70.3668 32.5023C71.9276 32.5023 72.2017 32.5234 72.5498 32.7132Z" fill="#FCF5E0"/>
<path d="M82.7167 99.6899C82.3476 99.9219 82.2316 100.08 82.5585 99.9008C82.7905 99.7637 83.1702 99.479 83.1069 99.4684C83.0753 99.4684 82.896 99.5739 82.7167 99.6899ZM81.9891 100.164C81.7992 100.312 81.7992 100.323 82.0312 100.207C82.1578 100.143 82.2633 100.07 82.2633 100.048C82.2633 99.9641 82.2105 99.9852 81.9891 100.164ZM81.4618 100.481C81.2719 100.628 81.2719 100.639 81.504 100.523C81.6305 100.46 81.736 100.386 81.736 100.365C81.736 100.28 81.6832 100.302 81.4618 100.481ZM80.9345 100.797C80.7447 100.945 80.7447 100.955 80.9767 100.839C81.1032 100.776 81.2087 100.702 81.2087 100.681C81.2087 100.597 81.1559 100.618 80.9345 100.797ZM80.133 101.219C79.7322 101.43 79.7533 101.514 80.1541 101.314C80.3334 101.219 80.4705 101.124 80.4705 101.103C80.4705 101.029 80.4599 101.04 80.133 101.219Z" fill="#FCF5E0"/>
</g>
<defs>
<clipPath id="clip0_222_301">
<rect width="108" height="108" fill="white"/>
</clipPath>
</defs>
</svg>
