<svg width="48" height="56" viewBox="0 0 48 56" fill="none" xmlns="http://www.w3.org/2000/svg">
<path d="M45.0413 12.7507L26.2197 1.46232C25.5437 1.0769 24.7789 0.874207 24.0007 0.874207C23.2225 0.874207 22.4577 1.0769 21.7816 1.46232L2.95881 12.7495C2.28049 13.1651 1.72084 13.7487 1.33393 14.4439C0.947012 15.139 0.745915 15.9222 0.750063 16.7177V39.2617C0.745993 40.0578 0.947093 40.8414 1.33397 41.5371C1.72085 42.2328 2.28045 42.8171 2.95881 43.2336L7.89459 46.181L7.92245 46.1968C10.4146 47.4719 11.3688 47.4719 12.4744 47.4719C16.3663 47.4719 18.7846 44.9531 18.7846 40.8977V19.0391C18.7868 18.7662 18.6807 18.5035 18.4896 18.3088C18.2984 18.114 18.0378 18.003 17.7649 18.0001H15.0549C14.782 18.003 14.5214 18.114 14.3302 18.3088C14.1391 18.5035 14.033 18.7662 14.0353 19.0391V40.8977C14.0451 41.2106 13.9739 41.5208 13.8286 41.7981C13.6833 42.0754 13.4687 42.3104 13.2058 42.4804C12.4913 42.9163 11.4535 42.8243 10.2826 42.22L5.55264 39.3731C5.53453 39.3608 5.51976 39.3442 5.50962 39.3247C5.49948 39.3053 5.49429 39.2836 5.49452 39.2617V17.0362C5.49529 17.0106 5.50219 16.9856 5.51462 16.9633C5.52705 16.941 5.54466 16.9219 5.56596 16.9078L23.9528 5.64611C23.9666 5.63928 23.9817 5.63573 23.997 5.63573C24.0124 5.63573 24.0275 5.63928 24.0412 5.64611L42.439 16.9078C42.4599 16.9231 42.4769 16.9432 42.4885 16.9663C42.5001 16.9895 42.506 17.0151 42.5056 17.041V39.2617C42.5061 39.2847 42.5014 39.3075 42.492 39.3284C42.4826 39.3493 42.4686 39.3679 42.4511 39.3828L24.0376 50.36C24.0062 50.3709 23.9721 50.3709 23.9407 50.36L19.2387 47.5675C19.0991 47.4763 18.9378 47.4236 18.7713 47.4149C18.6047 47.4062 18.4389 47.4417 18.2905 47.5179L18.2493 47.5421C16.9512 48.3111 16.6024 48.5109 15.3988 48.9492C15.2026 49.0207 14.7412 49.1914 14.7013 49.6479C14.6613 50.1045 15.0997 50.429 15.4896 50.6554L21.7744 54.5147C22.444 54.9158 23.2098 55.128 23.9904 55.1286H24.0606C24.8217 55.1167 25.5662 54.905 26.2197 54.5147L45.0413 43.2372C45.7193 42.8194 46.2786 42.2344 46.6653 41.5382C47.0521 40.842 47.2535 40.0581 47.2501 39.2617V16.7177C47.2539 15.9224 47.0526 15.1395 46.6657 14.4446C46.2789 13.7498 45.7194 13.1663 45.0413 12.7507Z" fill="#FCF5E0"/>
<path d="M30.2825 35.5139C25.7669 35.5139 24.8042 34.2521 24.5184 32.2153C24.4862 31.9728 24.3681 31.7499 24.1854 31.5872C24.0027 31.4245 23.7676 31.3328 23.523 31.3289H21.1254C20.8552 31.3346 20.5982 31.4471 20.4107 31.6418C20.2233 31.8366 20.1206 32.0976 20.1251 32.3678C20.1251 34.1334 20.7451 39.8962 30.2873 39.8962C33.2396 39.8962 35.6954 39.206 37.3871 37.8994C39.0787 36.5928 39.9845 34.6916 39.9845 32.426C39.9845 27.8789 37.0177 26.6341 31.175 25.8203C25.2353 24.9944 25.2353 24.5743 25.2353 23.6539C25.2353 22.9916 25.2353 21.4403 29.5293 21.4403C32.5845 21.4403 34.2205 21.8266 34.7436 23.8622C34.7899 24.0879 34.9119 24.291 35.0894 24.4379C35.2669 24.5848 35.4892 24.6666 35.7196 24.6699H38.1257C38.2675 24.6685 38.4074 24.6369 38.536 24.5772C38.6647 24.5175 38.7791 24.431 38.8717 24.3236C39.0567 24.1076 39.1489 23.8274 39.1284 23.5437C38.8172 19.2389 35.67 17.0555 29.5329 17.0555C23.9553 17.0555 20.6265 19.5682 20.6265 23.7762C20.6265 28.3899 24.0764 29.6941 29.2592 30.2342C35.3139 30.8602 35.3139 31.7733 35.3139 32.5798C35.3176 33.8367 34.7957 35.5139 30.2825 35.5139Z" fill="#FCF5E0"/>
</svg>
