<svg width="66" height="66" viewBox="0 0 66 66" fill="none" xmlns="http://www.w3.org/2000/svg">
<path d="M52.9366 23.2959C52.2775 23.0708 51.6136 22.8611 50.945 22.6669C51.0559 22.2157 51.1582 21.7619 51.2518 21.3056C52.76 13.9709 51.7739 8.06179 48.4082 6.1166C45.1855 4.25003 39.9004 6.19523 34.5688 10.8462C34.0446 11.3051 33.5311 11.7777 33.0284 12.2641C32.6932 11.941 32.3495 11.6248 31.9971 11.3154C26.409 6.34218 20.808 4.24746 17.4462 6.1991C14.2235 8.06953 13.2657 13.6241 14.6231 20.576C14.7589 21.2635 14.9114 21.948 15.0807 22.6295C14.288 22.8551 13.5223 23.0961 12.7901 23.3514C6.2468 25.6394 2.0625 29.2269 2.0625 32.9471C2.0625 36.7911 6.55359 40.6454 13.3766 42.9825C13.93 43.1707 14.4886 43.3456 15.0524 43.5071C14.8693 44.2368 14.7073 44.9745 14.5664 45.7205C13.2773 52.5525 14.2828 57.9756 17.499 59.8344C20.8209 61.7538 26.3936 59.7816 31.8257 55.0249C32.2554 54.6485 32.685 54.251 33.1147 53.8325C33.6579 54.3576 34.2164 54.8672 34.7905 55.3614C40.0499 59.8963 45.2435 61.728 48.4546 59.8641C51.7739 57.9382 52.8529 52.1116 51.4516 45.0231C51.3442 44.4817 51.2205 43.9291 51.0804 43.3653C51.4723 43.2493 51.856 43.1294 52.2315 43.0057C59.3214 40.6506 63.9401 36.8427 63.9401 32.951C63.9375 29.2127 59.6191 25.6021 52.9366 23.2959ZM36.3077 12.8442C40.8749 8.85972 45.1443 7.28707 47.0907 8.41113C49.1623 9.60867 49.9679 14.4375 48.666 20.7707C48.58 21.1832 48.4872 21.5944 48.3875 22.0043C45.662 21.3843 42.8981 20.9468 40.1143 20.6946C38.5205 18.3986 36.7732 16.213 34.8846 14.1526C35.347 13.704 35.8205 13.2679 36.3052 12.8442H36.3077ZM20.3324 36.126C20.8918 37.2088 21.4766 38.2783 22.0868 39.3345C22.7081 40.4121 23.3557 41.4739 24.0294 42.5197C22.114 42.3115 20.2105 42.0047 18.3266 41.6006C18.8732 39.832 19.5461 37.9951 20.3324 36.126ZM20.3324 29.8959C19.5589 28.0668 18.9041 26.2672 18.3666 24.5296C20.1326 24.1338 22.0146 23.8103 23.9766 23.5653C23.3191 24.5914 22.6866 25.6326 22.0791 26.6887C21.4715 27.7449 20.888 28.814 20.3285 29.8959H20.3324ZM21.7375 33.0116C22.5521 31.3126 23.4296 29.6463 24.3697 28.0126C25.309 26.3798 26.3089 24.7844 27.3694 23.2263C29.2102 23.0871 31.0973 23.0136 33.0039 23.0136C34.9104 23.0136 36.8092 23.0871 38.6487 23.2276C39.698 24.7822 40.6918 26.3721 41.6303 27.9971C42.5687 29.6222 43.4577 31.2808 44.2973 32.9729C43.4689 34.6779 42.582 36.3511 41.6367 37.9925C40.6991 39.6253 39.7109 41.2255 38.6719 42.793C36.835 42.9219 34.9336 42.9928 33 42.9928C31.0664 42.9928 29.2011 42.9322 27.3977 42.8149C26.3295 41.2517 25.3215 39.6494 24.3736 38.008C23.4257 36.3666 22.5457 34.7011 21.7336 33.0116H21.7375ZM43.9248 39.3164C44.5479 38.2353 45.146 37.14 45.7192 36.0306C46.5049 37.8122 47.1985 39.633 47.7971 41.4859C45.8911 41.9151 43.9639 42.2443 42.0234 42.472C42.6783 41.433 43.3121 40.3812 43.9248 39.3164ZM45.6934 29.8972C45.1228 28.8101 44.5294 27.7359 43.9132 26.6746C43.3116 25.6278 42.6847 24.594 42.0325 23.5731C44.006 23.8232 45.8996 24.1557 47.6747 24.5618C47.104 26.3723 46.4427 28.153 45.6934 29.8972ZM33.0296 16.0462C34.3168 17.4527 35.5323 18.9233 36.6713 20.4523C34.2349 20.3362 31.7969 20.3362 29.3571 20.4523C30.5598 18.8616 31.7909 17.3856 33.0296 16.0462ZM18.7765 8.48976C20.8467 7.28836 25.4242 9.00539 30.2491 13.2941C30.5572 13.5687 30.8679 13.8561 31.1773 14.1539C29.2789 16.214 27.5194 18.3977 25.9102 20.6907C23.1325 20.941 20.3742 21.3716 17.6524 21.9798C17.4952 21.3473 17.3534 20.7105 17.227 20.0694C16.0604 14.1101 16.8326 9.61769 18.7765 8.48976ZM15.7588 40.9548C15.2432 40.8078 14.734 40.6484 14.2313 40.4766C11.2148 39.4453 8.72309 38.0995 7.0125 36.6339C5.48109 35.3203 4.70508 34.0093 4.70508 32.9471C4.70508 30.69 8.06437 27.8102 13.6666 25.8573C14.3705 25.6124 15.0803 25.3885 15.7962 25.1857C16.6282 27.8596 17.6359 30.4756 18.8126 33.0168C17.6218 35.593 16.6017 38.2447 15.7588 40.9548ZM30.0841 53.0295C27.6826 55.1332 25.2772 56.6246 23.1567 57.3762C21.2515 58.0503 19.7343 58.0697 18.8177 57.5399C16.8661 56.4119 16.054 52.0562 17.1613 46.2142C17.2928 45.5267 17.4432 44.8392 17.6125 44.1517C20.3614 44.7438 23.1475 45.1483 25.9514 45.3621C27.5763 47.6671 29.3504 49.8632 31.2623 51.9363C30.8782 52.314 30.485 52.6775 30.0841 53.0295ZM33.1031 50.0362C31.8502 48.6814 30.5998 47.1823 29.3803 45.5709C30.5654 45.6173 31.772 45.6405 33 45.6405C34.2607 45.6405 35.5085 45.6135 36.7383 45.558C35.6034 47.1116 34.3901 48.6062 33.1031 50.0362ZM49.1545 53.7217C48.7859 55.712 48.0446 57.0397 47.1281 57.5708C45.1778 58.7026 41.0077 57.2318 36.5114 53.353C35.9958 52.9096 35.4802 52.4339 34.9555 51.935C36.8302 49.8538 38.5627 47.6488 40.1414 45.335C42.9608 45.0962 45.7604 44.6633 48.5203 44.0395C48.6466 44.55 48.7584 45.0502 48.8555 45.54C49.4755 48.6724 49.5645 51.5058 49.1545 53.7217ZM51.3975 40.4907C51.0598 40.6029 50.7117 40.7112 50.3585 40.8169C49.4931 38.1304 48.4461 35.5058 47.2248 32.9613C48.4003 30.4508 49.4063 27.8643 50.2361 25.2192C50.869 25.4035 51.4839 25.5969 52.0755 25.8019C57.8016 27.7767 61.2949 30.7003 61.2949 32.9471C61.2949 35.3448 57.5218 38.4566 51.3975 40.4907Z" fill="#FCF5E0"/>
<path d="M32.9995 38.485C34.0966 38.4885 35.17 38.1665 36.084 37.5596C36.9979 36.9527 37.7111 36.0883 38.1334 35.0757C38.5557 34.0632 38.6681 32.9481 38.4562 31.8717C38.2444 30.7953 37.7179 29.8059 36.9434 29.0289C36.169 28.2519 35.1813 27.7222 34.1056 27.5069C33.0299 27.2915 31.9145 27.4003 30.9006 27.8193C29.8867 28.2382 29.0199 28.9487 28.41 29.8606C27.8002 30.7725 27.4746 31.8449 27.4746 32.942C27.4731 33.6688 27.6148 34.3888 27.8917 35.0608C28.1686 35.7328 28.5752 36.3437 29.0883 36.8585C29.6014 37.3733 30.211 37.7819 30.8821 38.0609C31.5532 38.34 32.2727 38.4841 32.9995 38.485Z" fill="#FCF5E0"/>
</svg>
